<svg xmlns="http://www.w3.org/2000/svg" width="800" height="800"><path d="M-105,-67L-25,-65L160,-85Z" fill="#ffecd9" stroke="#ffecd9" stroke-width="1.51"/><path d="M-20,885L-109,883L226,907Z" fill="#c68462" stroke="#c68462" stroke-width="1.51"/><path d="M-105,-67L160,-85L245,-97Z" fill="#ffe5cb" stroke="#ffe5cb" stroke-width="1.51"/><path d="M245,-97L408,-98L716,-110Z" fill="#ffb98b" stroke="#ffb98b" stroke-width="1.51"/><path d="M408,-98L550,-96L716,-110Z" fill="#ffac7f" stroke="#ffac7f" stroke-width="1.51"/><path d="M631,874L470,905L730,892Z" fill="#b23e06" stroke="#b23e06" stroke-width="1.51"/><path d="M716,-110L805,-103L867,-100Z" fill="#da9474" stroke="#da9474" stroke-width="1.51"/><path d="M826,878L730,892L867,885Z" fill="#922e04" stroke="#922e04" stroke-width="1.51"/><path d="M863,523L849,552L888,579Z" fill="#bb4709" stroke="#bb4709" stroke-width="1.51"/><path d="M879,478L863,523L888,579Z" fill="#bc490a" stroke="#bc490a" stroke-width="1.51"/><path d="M826,825L867,885L888,794Z" fill="#922e04" stroke="#922e04" stroke-width="1.51"/><path d="M838,138L852,186L893,101Z" fill="#c97e52" stroke="#c97e52" stroke-width="1.51"/><path d="M888,278L807,346L894,357Z" fill="#c5662d" stroke="#c5662d" stroke-width="1.51"/><path d="M868,401L879,478L894,357Z" fill="#c1591e" stroke="#c1591e" stroke-width="1.51"/><path d="M879,478L888,579L894,357Z" fill="#bd5115" stroke="#bd5115" stroke-width="1.51"/><path d="M893,101L852,186L898,246Z" fill="#c5784a" stroke="#c5784a" stroke-width="1.51"/><path d="M888,278L894,357L898,246Z" fill="#c06832" stroke="#c06832" stroke-width="1.51"/><path d="M867,-100L847,-35L902,-2Z" fill="#cb8a6c" stroke="#cb8a6c" stroke-width="1.51"/><path d="M877,52L893,101L902,-2Z" fill="#c68360" stroke="#c68360" stroke-width="1.51"/><path d="M893,101L898,246L902,-2Z" fill="#c47d55" stroke="#c47d55" stroke-width="1.51"/><path d="M888,579L800,614L907,667Z" fill="#b63e05" stroke="#b63e05" stroke-width="1.51"/><path d="M800,614L807,677L907,667Z" fill="#b63c03" stroke="#b63c03" stroke-width="1.51"/><path d="M807,677L858,726L907,667Z" fill="#ad3803" stroke="#ad3803" stroke-width="1.51"/><path d="M858,726L892,736L907,667Z" fill="#a43504" stroke="#a43504" stroke-width="1.51"/><path d="M892,736L888,794L907,667Z" fill="#9e3304" stroke="#9e3304" stroke-width="1.51"/><path d="M894,357L888,579L907,667Z" fill="#b8470a" stroke="#b8470a" stroke-width="1.51"/><path d="M898,246L894,357L907,667Z" fill="#bd571c" stroke="#bd571c" stroke-width="1.51"/><path d="M902,-2L898,246L907,667Z" fill="#be6631" stroke="#be6631" stroke-width="1.51"/><path d="M858,726L888,794L892,736Z" fill="#9d3204" stroke="#9d3204" stroke-width="1.51"/><path d="M852,186L846,257L898,246Z" fill="#c6723f" stroke="#c6723f" stroke-width="1.51"/><path d="M847,-35L877,52L902,-2Z" fill="#c98866" stroke="#c98866" stroke-width="1.51"/><path d="M846,257L807,346L888,278Z" fill="#c86b33" stroke="#c86b33" stroke-width="1.51"/><path d="M877,52L839,92L893,101Z" fill="#c9825b" stroke="#c9825b" stroke-width="1.51"/><path d="M846,257L888,278L898,246Z" fill="#c36d39" stroke="#c36d39" stroke-width="1.51"/><path d="M839,92L838,138L893,101Z" fill="#ca8157" stroke="#ca8157" stroke-width="1.51"/><path d="M836,391L868,401L894,357Z" fill="#c45e23" stroke="#c45e23" stroke-width="1.51"/><path d="M807,346L836,391L894,357Z" fill="#c76226" stroke="#c76226" stroke-width="1.51"/><path d="M849,552L800,614L888,579Z" fill="#bc4407" stroke="#bc4407" stroke-width="1.51"/><path d="M858,726L800,752L888,794Z" fill="#a13304" stroke="#a13304" stroke-width="1.51"/><path d="M826,825L826,878L867,885Z" fill="#902d04" stroke="#902d04" stroke-width="1.51"/><path d="M836,391L793,475L868,401Z" fill="#c85b1d" stroke="#c85b1d" stroke-width="1.51"/><path d="M847,-35L821,66L877,52Z" fill="#ce8864" stroke="#ce8864" stroke-width="1.51"/><path d="M868,401L793,475L879,478Z" fill="#c45618" stroke="#c45618" stroke-width="1.51"/><path d="M800,752L826,825L888,794Z" fill="#9c3204" stroke="#9c3204" stroke-width="1.51"/><path d="M787,316L807,346L846,257Z" fill="#cd6c32" stroke="#cd6c32" stroke-width="1.51"/><path d="M777,5L821,66L847,-35Z" fill="#d48c67" stroke="#d48c67" stroke-width="1.51"/><path d="M821,66L839,92L877,52Z" fill="#cd855e" stroke="#cd855e" stroke-width="1.51"/><path d="M793,475L804,493L879,478Z" fill="#c75313" stroke="#c75313" stroke-width="1.51"/><path d="M804,493L863,523L879,478Z" fill="#c25010" stroke="#c25010" stroke-width="1.51"/><path d="M804,212L846,257L852,186Z" fill="#cc7643" stroke="#cc7643" stroke-width="1.51"/><path d="M805,-103L847,-35L867,-100Z" fill="#d18f70" stroke="#d18f70" stroke-width="1.51"/><path d="M804,493L849,552L863,523Z" fill="#c24c0b" stroke="#c24c0b" stroke-width="1.51"/><path d="M807,677L800,752L858,726Z" fill="#ac3803" stroke="#ac3803" stroke-width="1.51"/><path d="M838,138L783,145L852,186Z" fill="#ce7f50" stroke="#ce7f50" stroke-width="1.51"/><path d="M783,145L804,212L852,186Z" fill="#d07c4b" stroke="#d07c4b" stroke-width="1.51"/><path d="M805,-103L757,-54L847,-35Z" fill="#d8926f" stroke="#d8926f" stroke-width="1.51"/><path d="M804,493L753,552L849,552Z" fill="#c74e09" stroke="#c74e09" stroke-width="1.51"/><path d="M753,552L800,614L849,552Z" fill="#c44907" stroke="#c44907" stroke-width="1.51"/><path d="M787,89L838,138L839,92Z" fill="#d08458" stroke="#d08458" stroke-width="1.51"/><path d="M764,297L787,316L846,257Z" fill="#d06f35" stroke="#d06f35" stroke-width="1.51"/><path d="M757,-54L777,5L847,-35Z" fill="#d9906c" stroke="#d9906c" stroke-width="1.51"/><path d="M771,711L800,752L807,677Z" fill="#b23a03" stroke="#b23a03" stroke-width="1.51"/><path d="M741,418L793,475L836,391Z" fill="#cf5d1c" stroke="#cf5d1c" stroke-width="1.51"/><path d="M804,212L764,297L846,257Z" fill="#cf733b" stroke="#cf733b" stroke-width="1.51"/><path d="M770,216L764,297L804,212Z" fill="#d4773f" stroke="#d4773f" stroke-width="1.51"/><path d="M787,89L783,145L838,138Z" fill="#d38456" stroke="#d38456" stroke-width="1.51"/><path d="M821,66L787,89L839,92Z" fill="#d2865d" stroke="#d2865d" stroke-width="1.51"/><path d="M777,5L764,43L821,66Z" fill="#d88c64" stroke="#d88c64" stroke-width="1.51"/><path d="M762,845L826,878L826,825Z" fill="#983004" stroke="#983004" stroke-width="1.51"/><path d="M807,346L741,418L836,391Z" fill="#cf6323" stroke="#cf6323" stroke-width="1.51"/><path d="M759,500L753,552L804,493Z" fill="#ce520d" stroke="#ce520d" stroke-width="1.51"/><path d="M762,845L730,892L826,878Z" fill="#9a3104" stroke="#9a3104" stroke-width="1.51"/><path d="M800,752L764,756L826,825Z" fill="#a53503" stroke="#a53503" stroke-width="1.51"/><path d="M764,756L762,845L826,825Z" fill="#a23403" stroke="#a23403" stroke-width="1.51"/><path d="M800,614L758,643L807,677Z" fill="#bf4003" stroke="#bf4003" stroke-width="1.51"/><path d="M764,43L787,89L821,66Z" fill="#d68a5f" stroke="#d68a5f" stroke-width="1.51"/><path d="M772,484L759,500L804,493Z" fill="#ce5511" stroke="#ce5511" stroke-width="1.51"/><path d="M783,145L770,216L804,212Z" fill="#d47e49" stroke="#d47e49" stroke-width="1.51"/><path d="M758,643L771,711L807,677Z" fill="#bb3e02" stroke="#bb3e02" stroke-width="1.51"/><path d="M787,316L741,418L807,346Z" fill="#d36828" stroke="#d36828" stroke-width="1.51"/><path d="M741,418L772,484L793,475Z" fill="#d15b17" stroke="#d15b17" stroke-width="1.51"/><path d="M771,711L764,756L800,752Z" fill="#af3903" stroke="#af3903" stroke-width="1.51"/><path d="M716,-110L757,-54L805,-103Z" fill="#e19673" stroke="#e19673" stroke-width="1.51"/><path d="M793,475L772,484L804,493Z" fill="#cc5513" stroke="#cc5513" stroke-width="1.51"/><path d="M753,552L713,616L758,643Z" fill="#cc4905" stroke="#cc4905" stroke-width="1.51"/><path d="M688,382L741,418L787,316Z" fill="#da6927" stroke="#da6927" stroke-width="1.51"/><path d="M753,552L758,643L800,614Z" fill="#c74705" stroke="#c74705" stroke-width="1.51"/><path d="M715,253L764,297L770,216Z" fill="#da783d" stroke="#da783d" stroke-width="1.51"/><path d="M693,129L783,145L787,89Z" fill="#dc8858" stroke="#dc8858" stroke-width="1.51"/><path d="M764,297L688,382L787,316Z" fill="#da6e2e" stroke="#da6e2e" stroke-width="1.51"/><path d="M677,362L688,382L764,297Z" fill="#e16f2c" stroke="#e16f2c" stroke-width="1.51"/><path d="M708,210L770,216L783,145Z" fill="#db804a" stroke="#db804a" stroke-width="1.51"/><path d="M764,43L688,69L787,89Z" fill="#df8d61" stroke="#df8d61" stroke-width="1.51"/><path d="M688,69L693,129L787,89Z" fill="#e48d5d" stroke="#e48d5d" stroke-width="1.51"/><path d="M677,795L762,845L764,756Z" fill="#ad3803" stroke="#ad3803" stroke-width="1.51"/><path d="M693,129L708,210L783,145Z" fill="#e08751" stroke="#e08751" stroke-width="1.51"/><path d="M725,885L730,892L762,845Z" fill="#a03304" stroke="#a03304" stroke-width="1.51"/><path d="M758,643L690,714L771,711Z" fill="#c13f03" stroke="#c13f03" stroke-width="1.51"/><path d="M703,-26L764,43L777,5Z" fill="#e1926a" stroke="#e1926a" stroke-width="1.51"/><path d="M757,-54L703,-26L777,5Z" fill="#e2946d" stroke="#e2946d" stroke-width="1.51"/><path d="M690,714L764,756L771,711Z" fill="#b93d03" stroke="#b93d03" stroke-width="1.51"/><path d="M685,454L759,500L772,484Z" fill="#d65a14" stroke="#d65a14" stroke-width="1.51"/><path d="M741,418L685,454L772,484Z" fill="#d95e18" stroke="#d95e18" stroke-width="1.51"/><path d="M708,210L715,253L770,216Z" fill="#df7d43" stroke="#df7d43" stroke-width="1.51"/><path d="M713,616L690,714L758,643Z" fill="#cb4302" stroke="#cb4302" stroke-width="1.51"/><path d="M704,532L753,552L759,500Z" fill="#d4530a" stroke="#d4530a" stroke-width="1.51"/><path d="M715,253L677,362L764,297Z" fill="#df7434" stroke="#df7434" stroke-width="1.51"/><path d="M690,714L670,745L764,756Z" fill="#bd3e03" stroke="#bd3e03" stroke-width="1.51"/><path d="M670,745L677,795L764,756Z" fill="#b93c03" stroke="#b93c03" stroke-width="1.51"/><path d="M703,-26L688,69L764,43Z" fill="#e69368" stroke="#e69368" stroke-width="1.51"/><path d="M550,-96L617,-75L716,-110Z" fill="#faa379" stroke="#faa379" stroke-width="1.51"/><path d="M677,795L725,885L762,845Z" fill="#a93703" stroke="#a93703" stroke-width="1.51"/><path d="M680,566L713,616L753,552Z" fill="#d44e06" stroke="#d44e06" stroke-width="1.51"/><path d="M716,-110L703,-26L757,-54Z" fill="#e89872" stroke="#e89872" stroke-width="1.51"/><path d="M685,454L704,532L759,500Z" fill="#da5911" stroke="#da5911" stroke-width="1.51"/><path d="M693,129L680,140L708,210Z" fill="#e88953" stroke="#e88953" stroke-width="1.51"/><path d="M704,532L680,566L753,552Z" fill="#d75208" stroke="#d75208" stroke-width="1.51"/><path d="M650,641L690,714L713,616Z" fill="#d24602" stroke="#d24602" stroke-width="1.51"/><path d="M688,382L685,454L741,418Z" fill="#e0651e" stroke="#e0651e" stroke-width="1.51"/><path d="M662,-25L650,58L688,69Z" fill="#f29768" stroke="#f29768" stroke-width="1.51"/><path d="M662,-25L688,69L703,-26Z" fill="#ef986c" stroke="#ef986c" stroke-width="1.51"/><path d="M619,300L677,362L715,253Z" fill="#ea7834" stroke="#ea7834" stroke-width="1.51"/><path d="M662,-25L703,-26L716,-110Z" fill="#ee9a72" stroke="#ee9a72" stroke-width="1.51"/><path d="M677,795L631,874L725,885Z" fill="#b03903" stroke="#b03903" stroke-width="1.51"/><path d="M725,885L631,874L730,892Z" fill="#a73604" stroke="#a73604" stroke-width="1.51"/><path d="M617,-75L662,-25L716,-110Z" fill="#f59e75" stroke="#f59e75" stroke-width="1.51"/><path d="M642,466L665,539L685,454Z" fill="#e55f13" stroke="#e55f13" stroke-width="1.51"/><path d="M688,69L666,116L693,129Z" fill="#ec905d" stroke="#ec905d" stroke-width="1.51"/><path d="M685,454L665,539L704,532Z" fill="#e05a0f" stroke="#e05a0f" stroke-width="1.51"/><path d="M708,210L634,214L715,253Z" fill="#e98245" stroke="#e98245" stroke-width="1.51"/><path d="M619,300L644,358L677,362Z" fill="#ee752f" stroke="#ee752f" stroke-width="1.51"/><path d="M680,140L634,214L708,210Z" fill="#ec884d" stroke="#ec884d" stroke-width="1.51"/><path d="M634,214L619,300L715,253Z" fill="#ee803f" stroke="#ee803f" stroke-width="1.51"/><path d="M680,566L650,641L713,616Z" fill="#d84d04" stroke="#d84d04" stroke-width="1.51"/><path d="M496,883L470,905L631,874Z" fill="#ba480a" stroke="#ba480a" stroke-width="1.51"/><path d="M665,539L680,566L704,532Z" fill="#de5408" stroke="#de5408" stroke-width="1.51"/><path d="M618,182L634,214L680,140Z" fill="#f18c50" stroke="#f18c50" stroke-width="1.51"/><path d="M635,384L685,454L688,382Z" fill="#e86a20" stroke="#e86a20" stroke-width="1.51"/><path d="M650,641L644,722L690,714Z" fill="#d04502" stroke="#d04502" stroke-width="1.51"/><path d="M612,799L631,874L677,795Z" fill="#ba3e04" stroke="#ba3e04" stroke-width="1.51"/><path d="M635,384L642,466L685,454Z" fill="#ea671c" stroke="#ea671c" stroke-width="1.51"/><path d="M650,58L666,116L688,69Z" fill="#f09361" stroke="#f09361" stroke-width="1.51"/><path d="M666,116L680,140L693,129Z" fill="#ec8e59" stroke="#ec8e59" stroke-width="1.51"/><path d="M606,863L496,883L631,874Z" fill="#b84307" stroke="#b84307" stroke-width="1.51"/><path d="M622,557L650,641L680,566Z" fill="#e05205" stroke="#e05205" stroke-width="1.51"/><path d="M644,722L670,745L690,714Z" fill="#c84202" stroke="#c84202" stroke-width="1.51"/><path d="M677,362L635,384L688,382Z" fill="#e96e27" stroke="#e96e27" stroke-width="1.51"/><path d="M245,-97L288,-90L408,-98Z" fill="#ffcba1" stroke="#ffcba1" stroke-width="1.51"/><path d="M622,557L598,614L650,641Z" fill="#e15406" stroke="#e15406" stroke-width="1.51"/><path d="M611,745L612,799L670,745Z" fill="#c64303" stroke="#c64303" stroke-width="1.51"/><path d="M670,745L612,799L677,795Z" fill="#c03f02" stroke="#c03f02" stroke-width="1.51"/><path d="M644,358L635,384L677,362Z" fill="#ec7129" stroke="#ec7129" stroke-width="1.51"/><path d="M665,539L622,557L680,566Z" fill="#e35507" stroke="#e35507" stroke-width="1.51"/><path d="M666,116L618,182L680,140Z" fill="#f18f57" stroke="#f18f57" stroke-width="1.51"/><path d="M604,-29L650,58L662,-25Z" fill="#f69d6f" stroke="#f69d6f" stroke-width="1.51"/><path d="M612,799L606,863L631,874Z" fill="#b94005" stroke="#b94005" stroke-width="1.51"/><path d="M642,466L622,557L665,539Z" fill="#e75b0c" stroke="#e75b0c" stroke-width="1.51"/><path d="M587,157L618,182L666,116Z" fill="#f39157" stroke="#f39157" stroke-width="1.51"/><path d="M644,722L611,745L670,745Z" fill="#ca4403" stroke="#ca4403" stroke-width="1.51"/><path d="M635,384L583,431L642,466Z" fill="#ee6c1f" stroke="#ee6c1f" stroke-width="1.51"/><path d="M584,713L644,722L650,641Z" fill="#d44903" stroke="#d44903" stroke-width="1.51"/><path d="M617,-75L604,-29L662,-25Z" fill="#f9a074" stroke="#f9a074" stroke-width="1.51"/><path d="M578,115L587,157L666,116Z" fill="#f5965c" stroke="#f5965c" stroke-width="1.51"/><path d="M650,58L578,115L666,116Z" fill="#f49660" stroke="#f49660" stroke-width="1.51"/><path d="M582,422L583,431L635,384Z" fill="#f07123" stroke="#f07123" stroke-width="1.51"/><path d="M408,-98L478,-82L550,-96Z" fill="#ffb687" stroke="#ffb687" stroke-width="1.51"/><path d="M566,275L619,300L634,214Z" fill="#f28540" stroke="#f28540" stroke-width="1.51"/><path d="M561,490L622,557L642,466Z" fill="#eb6212" stroke="#eb6212" stroke-width="1.51"/><path d="M598,614L584,713L650,641Z" fill="#dd4e04" stroke="#dd4e04" stroke-width="1.51"/><path d="M604,-29L554,17L650,58Z" fill="#f9a06f" stroke="#f9a06f" stroke-width="1.51"/><path d="M554,17L578,115L650,58Z" fill="#f99d68" stroke="#f99d68" stroke-width="1.51"/><path d="M584,713L611,745L644,722Z" fill="#ce4804" stroke="#ce4804" stroke-width="1.51"/><path d="M555,322L635,384L644,358Z" fill="#f0782e" stroke="#f0782e" stroke-width="1.51"/><path d="M619,300L555,322L644,358Z" fill="#f17c33" stroke="#f17c33" stroke-width="1.51"/><path d="M572,203L566,275L634,214Z" fill="#f48b48" stroke="#f48b48" stroke-width="1.51"/><path d="M583,431L561,490L642,466Z" fill="#ee6a1b" stroke="#ee6a1b" stroke-width="1.51"/><path d="M539,351L582,422L635,384Z" fill="#f27629" stroke="#f27629" stroke-width="1.51"/><path d="M555,322L539,351L635,384Z" fill="#f47c30" stroke="#f47c30" stroke-width="1.51"/><path d="M618,182L572,203L634,214Z" fill="#f48d4e" stroke="#f48d4e" stroke-width="1.51"/><path d="M554,17L541,27L578,115Z" fill="#fca26c" stroke="#fca26c" stroke-width="1.51"/><path d="M541,27L527,70L578,115Z" fill="#fca26a" stroke="#fca26a" stroke-width="1.51"/><path d="M563,821L606,863L612,799Z" fill="#be4406" stroke="#be4406" stroke-width="1.51"/><path d="M611,745L565,745L612,799Z" fill="#c94806" stroke="#c94806" stroke-width="1.51"/><path d="M561,490L519,554L622,557Z" fill="#ed6310" stroke="#ed6310" stroke-width="1.51"/><path d="M519,554L560,603L622,557Z" fill="#e95f0d" stroke="#e95f0d" stroke-width="1.51"/><path d="M560,603L598,614L622,557Z" fill="#e55909" stroke="#e55909" stroke-width="1.51"/><path d="M560,603L584,713L598,614Z" fill="#e15406" stroke="#e15406" stroke-width="1.51"/><path d="M550,-96L604,-29L617,-75Z" fill="#fca679" stroke="#fca679" stroke-width="1.51"/><path d="M566,275L555,322L619,300Z" fill="#f3833a" stroke="#f3833a" stroke-width="1.51"/><path d="M560,603L520,621L584,713Z" fill="#e45708" stroke="#e45708" stroke-width="1.51"/><path d="M587,157L572,203L618,182Z" fill="#f69153" stroke="#f69153" stroke-width="1.51"/><path d="M584,713L565,745L611,745Z" fill="#cf4b05" stroke="#cf4b05" stroke-width="1.51"/><path d="M565,745L563,821L612,799Z" fill="#c54806" stroke="#c54806" stroke-width="1.51"/><path d="M368,876L226,907L470,905Z" fill="#bf6028" stroke="#bf6028" stroke-width="1.51"/><path d="M550,-96L517,-57L604,-29Z" fill="#ffaa7b" stroke="#ffaa7b" stroke-width="1.51"/><path d="M517,-57L520,-30L604,-29Z" fill="#ffaa79" stroke="#ffaa79" stroke-width="1.51"/><path d="M563,821L496,883L606,863Z" fill="#bc4709" stroke="#bc4709" stroke-width="1.51"/><path d="M520,-30L554,17L604,-29Z" fill="#fda775" stroke="#fda775" stroke-width="1.51"/><path d="M520,621L509,722L584,713Z" fill="#de5509" stroke="#de5509" stroke-width="1.51"/><path d="M517,503L519,554L561,490Z" fill="#f16a15" stroke="#f16a15" stroke-width="1.51"/><path d="M513,811L563,821L565,745Z" fill="#c74c08" stroke="#c74c08" stroke-width="1.51"/><path d="M511,265L566,275L572,203Z" fill="#f88d47" stroke="#f88d47" stroke-width="1.51"/><path d="M539,351L513,399L582,422Z" fill="#f67a2b" stroke="#f67a2b" stroke-width="1.51"/><path d="M578,115L493,184L587,157Z" fill="#f99a5b" stroke="#f99a5b" stroke-width="1.51"/><path d="M493,184L572,203L587,157Z" fill="#f99655" stroke="#f99655" stroke-width="1.51"/><path d="M526,742L513,811L565,745Z" fill="#ce4f09" stroke="#ce4f09" stroke-width="1.51"/><path d="M508,487L561,490L583,431Z" fill="#f26f1d" stroke="#f26f1d" stroke-width="1.51"/><path d="M513,399L508,487L583,431Z" fill="#f57523" stroke="#f57523" stroke-width="1.51"/><path d="M526,742L565,745L584,713Z" fill="#d24f07" stroke="#d24f07" stroke-width="1.51"/><path d="M509,722L526,742L584,713Z" fill="#d55208" stroke="#d55208" stroke-width="1.51"/><path d="M582,422L513,399L583,431Z" fill="#f47525" stroke="#f47525" stroke-width="1.51"/><path d="M493,184L501,202L572,203Z" fill="#fb9854" stroke="#fb9854" stroke-width="1.51"/><path d="M501,202L511,265L572,203Z" fill="#fa934d" stroke="#fa934d" stroke-width="1.51"/><path d="M527,70L493,184L578,115Z" fill="#fc9f62" stroke="#fc9f62" stroke-width="1.51"/><path d="M472,682L509,722L520,621Z" fill="#e35b0f" stroke="#e35b0f" stroke-width="1.51"/><path d="M513,811L496,883L563,821Z" fill="#c24c0b" stroke="#c24c0b" stroke-width="1.51"/><path d="M511,265L555,322L566,275Z" fill="#f7893f" stroke="#f7893f" stroke-width="1.51"/><path d="M519,554L520,621L560,603Z" fill="#eb610e" stroke="#eb610e" stroke-width="1.51"/><path d="M508,487L517,503L561,490Z" fill="#f36e1a" stroke="#f36e1a" stroke-width="1.51"/><path d="M520,-30L541,27L554,17Z" fill="#ffa875" stroke="#ffa875" stroke-width="1.51"/><path d="M288,-90L361,-87L408,-98Z" fill="#ffc69a" stroke="#ffc69a" stroke-width="1.51"/><path d="M464,72L493,184L527,70Z" fill="#fea569" stroke="#fea569" stroke-width="1.51"/><path d="M511,265L539,351L555,322Z" fill="#f8863b" stroke="#f8863b" stroke-width="1.51"/><path d="M468,428L508,487L513,399Z" fill="#f77b28" stroke="#f77b28" stroke-width="1.51"/><path d="M478,-82L517,-57L550,-96Z" fill="#ffb080" stroke="#ffb080" stroke-width="1.51"/><path d="M468,428L487,484L508,487Z" fill="#f67825" stroke="#f67825" stroke-width="1.51"/><path d="M477,755L513,811L526,742Z" fill="#cf530f" stroke="#cf530f" stroke-width="1.51"/><path d="M511,265L436,352L539,351Z" fill="#fa8a3e" stroke="#fa8a3e" stroke-width="1.51"/><path d="M471,45L527,70L541,27Z" fill="#ffa871" stroke="#ffa871" stroke-width="1.51"/><path d="M520,-30L471,45L541,27Z" fill="#ffab77" stroke="#ffab77" stroke-width="1.51"/><path d="M436,352L513,399L539,351Z" fill="#f98435" stroke="#f98435" stroke-width="1.51"/><path d="M464,72L430,166L493,184Z" fill="#fea768" stroke="#fea768" stroke-width="1.51"/><path d="M442,266L436,352L511,265Z" fill="#fb9247" stroke="#fb9247" stroke-width="1.51"/><path d="M470,825L496,883L513,811Z" fill="#c35111" stroke="#c35111" stroke-width="1.51"/><path d="M460,629L472,682L520,621Z" fill="#e86114" stroke="#e86114" stroke-width="1.51"/><path d="M519,554L439,586L520,621Z" fill="#ed6716" stroke="#ed6716" stroke-width="1.51"/><path d="M439,586L460,629L520,621Z" fill="#ec6618" stroke="#ec6618" stroke-width="1.51"/><path d="M471,45L464,72L527,70Z" fill="#ffaa72" stroke="#ffaa72" stroke-width="1.51"/><path d="M517,503L453,504L519,554Z" fill="#f36f1b" stroke="#f36f1b" stroke-width="1.51"/><path d="M436,-33L471,45L520,-30Z" fill="#ffb17e" stroke="#ffb17e" stroke-width="1.51"/><path d="M509,722L477,755L526,742Z" fill="#d5560f" stroke="#d5560f" stroke-width="1.51"/><path d="M414,125L430,166L464,72Z" fill="#ffac6f" stroke="#ffac6f" stroke-width="1.51"/><path d="M501,202L442,266L511,265Z" fill="#fb964f" stroke="#fb964f" stroke-width="1.51"/><path d="M478,-82L436,-33L517,-57Z" fill="#ffb483" stroke="#ffb483" stroke-width="1.51"/><path d="M487,484L453,504L517,503Z" fill="#f57421" stroke="#f57421" stroke-width="1.51"/><path d="M517,-57L436,-33L520,-30Z" fill="#ffb17f" stroke="#ffb17f" stroke-width="1.51"/><path d="M442,209L442,266L501,202Z" fill="#fc9c56" stroke="#fc9c56" stroke-width="1.51"/><path d="M477,755L470,825L513,811Z" fill="#ca5412" stroke="#ca5412" stroke-width="1.51"/><path d="M453,504L439,586L519,554Z" fill="#f26f1c" stroke="#f26f1c" stroke-width="1.51"/><path d="M508,487L487,484L517,503Z" fill="#f4721e" stroke="#f4721e" stroke-width="1.51"/><path d="M436,352L468,428L513,399Z" fill="#fa8433" stroke="#fa8433" stroke-width="1.51"/><path d="M472,682L477,755L509,722Z" fill="#da5a12" stroke="#da5a12" stroke-width="1.51"/><path d="M493,184L442,209L501,202Z" fill="#fd9d5a" stroke="#fd9d5a" stroke-width="1.51"/><path d="M472,682L419,735L477,755Z" fill="#da5e18" stroke="#da5e18" stroke-width="1.51"/><path d="M470,825L470,905L496,883Z" fill="#bf5114" stroke="#bf5114" stroke-width="1.51"/><path d="M430,166L442,209L493,184Z" fill="#fda25f" stroke="#fda25f" stroke-width="1.51"/><path d="M397,835L470,905L470,825Z" fill="#c35619" stroke="#c35619" stroke-width="1.51"/><path d="M436,-33L406,15L471,45Z" fill="#ffb581" stroke="#ffb581" stroke-width="1.51"/><path d="M419,735L470,825L477,755Z" fill="#d15b18" stroke="#d15b18" stroke-width="1.51"/><path d="M468,428L453,504L487,484Z" fill="#f67a28" stroke="#f67a28" stroke-width="1.51"/><path d="M436,352L396,375L468,428Z" fill="#fc8b3a" stroke="#fc8b3a" stroke-width="1.51"/><path d="M397,835L386,851L470,905Z" fill="#c35a1d" stroke="#c35a1d" stroke-width="1.51"/><path d="M419,735L397,835L470,825Z" fill="#cd5c1c" stroke="#cd5c1c" stroke-width="1.51"/><path d="M408,-98L436,-33L478,-82Z" fill="#ffb989" stroke="#ffb989" stroke-width="1.51"/><path d="M372,462L453,504L468,428Z" fill="#f9802e" stroke="#f9802e" stroke-width="1.51"/><path d="M400,572L439,586L453,504Z" fill="#f37423" stroke="#f37423" stroke-width="1.51"/><path d="M397,695L419,735L472,682Z" fill="#e0641d" stroke="#e0641d" stroke-width="1.51"/><path d="M460,629L390,643L472,682Z" fill="#ea671b" stroke="#ea671b" stroke-width="1.51"/><path d="M390,643L397,695L472,682Z" fill="#e7681e" stroke="#e7681e" stroke-width="1.51"/><path d="M386,851L368,876L470,905Z" fill="#c15a1e" stroke="#c15a1e" stroke-width="1.51"/><path d="M406,15L464,72L471,45Z" fill="#ffb17a" stroke="#ffb17a" stroke-width="1.51"/><path d="M381,322L436,352L442,266Z" fill="#fd9649" stroke="#fd9649" stroke-width="1.51"/><path d="M396,375L362,413L468,428Z" fill="#fc8b3a" stroke="#fc8b3a" stroke-width="1.51"/><path d="M362,413L372,462L468,428Z" fill="#fc8937" stroke="#fc8937" stroke-width="1.51"/><path d="M408,-98L411,-38L436,-33Z" fill="#ffbc8b" stroke="#ffbc8b" stroke-width="1.51"/><path d="M372,462L382,501L453,504Z" fill="#f9802e" stroke="#f9802e" stroke-width="1.51"/><path d="M406,15L414,125L464,72Z" fill="#ffb179" stroke="#ffb179" stroke-width="1.51"/><path d="M382,501L400,572L453,504Z" fill="#f77a28" stroke="#f77a28" stroke-width="1.51"/><path d="M439,586L390,643L460,629Z" fill="#ed6c1f" stroke="#ed6c1f" stroke-width="1.51"/><path d="M265,880L226,907L368,876Z" fill="#c16934" stroke="#c16934" stroke-width="1.51"/><path d="M406,15L352,95L414,125Z" fill="#ffb57d" stroke="#ffb57d" stroke-width="1.51"/><path d="M380,231L442,266L442,209Z" fill="#fea059" stroke="#fea059" stroke-width="1.51"/><path d="M411,-38L406,15L436,-33Z" fill="#ffb987" stroke="#ffb987" stroke-width="1.51"/><path d="M400,572L390,643L439,586Z" fill="#f07123" stroke="#f07123" stroke-width="1.51"/><path d="M370,277L381,322L442,266Z" fill="#fd9c51" stroke="#fd9c51" stroke-width="1.51"/><path d="M380,231L370,277L442,266Z" fill="#fea057" stroke="#fea057" stroke-width="1.51"/><path d="M430,166L380,231L442,209Z" fill="#ffa561" stroke="#ffa561" stroke-width="1.51"/><path d="M340,820L397,835L419,735Z" fill="#cf6323" stroke="#cf6323" stroke-width="1.51"/><path d="M381,322L396,375L436,352Z" fill="#fe9345" stroke="#fe9345" stroke-width="1.51"/><path d="M382,501L363,554L400,572Z" fill="#f67c2c" stroke="#f67c2c" stroke-width="1.51"/><path d="M316,747L340,820L419,735Z" fill="#d56929" stroke="#d56929" stroke-width="1.51"/><path d="M414,125L376,132L430,166Z" fill="#ffae6f" stroke="#ffae6f" stroke-width="1.51"/><path d="M376,132L380,231L430,166Z" fill="#ffab6a" stroke="#ffab6a" stroke-width="1.51"/><path d="M408,-98L361,-87L411,-38Z" fill="#ffc091" stroke="#ffc091" stroke-width="1.51"/><path d="M352,95L376,132L414,125Z" fill="#ffb477" stroke="#ffb477" stroke-width="1.51"/><path d="M397,695L316,747L419,735Z" fill="#dd6926" stroke="#dd6926" stroke-width="1.51"/><path d="M376,132L324,150L380,231Z" fill="#ffb171" stroke="#ffb171" stroke-width="1.51"/><path d="M324,150L346,231L380,231Z" fill="#ffad6c" stroke="#ffad6c" stroke-width="1.51"/><path d="M314,45L352,95L406,15Z" fill="#ffbc87" stroke="#ffbc87" stroke-width="1.51"/><path d="M339,-45L406,15L411,-38Z" fill="#ffbe8c" stroke="#ffbe8c" stroke-width="1.51"/><path d="M343,642L390,643L400,572Z" fill="#ef7429" stroke="#ef7429" stroke-width="1.51"/><path d="M361,-87L339,-45L411,-38Z" fill="#ffc293" stroke="#ffc293" stroke-width="1.51"/><path d="M363,554L343,642L400,572Z" fill="#f2782c" stroke="#f2782c" stroke-width="1.51"/><path d="M390,643L343,670L397,695Z" fill="#e96e27" stroke="#e96e27" stroke-width="1.51"/><path d="M339,-45L307,-6L406,15Z" fill="#ffc292" stroke="#ffc292" stroke-width="1.51"/><path d="M307,-6L314,45L406,15Z" fill="#ffc190" stroke="#ffc190" stroke-width="1.51"/><path d="M343,670L316,747L397,695Z" fill="#e26f2b" stroke="#e26f2b" stroke-width="1.51"/><path d="M381,322L362,413L396,375Z" fill="#fd9446" stroke="#fd9446" stroke-width="1.51"/><path d="M340,820L386,851L397,835Z" fill="#c96225" stroke="#c96225" stroke-width="1.51"/><path d="M310,314L362,413L381,322Z" fill="#fe9a4f" stroke="#fe9a4f" stroke-width="1.51"/><path d="M-25,-65L39,-61L160,-85Z" fill="#ffe7d1" stroke="#ffe7d1" stroke-width="1.51"/><path d="M343,642L343,670L390,643Z" fill="#ec722b" stroke="#ec722b" stroke-width="1.51"/><path d="M346,231L370,277L380,231Z" fill="#fea660" stroke="#fea660" stroke-width="1.51"/><path d="M370,277L339,293L381,322Z" fill="#fda056" stroke="#fda056" stroke-width="1.51"/><path d="M316,528L363,554L382,501Z" fill="#f88233" stroke="#f88233" stroke-width="1.51"/><path d="M340,820L368,876L386,851Z" fill="#c66226" stroke="#c66226" stroke-width="1.51"/><path d="M310,314L272,353L362,413Z" fill="#fe9e54" stroke="#fe9e54" stroke-width="1.51"/><path d="M332,471L316,528L382,501Z" fill="#fa8739" stroke="#fa8739" stroke-width="1.51"/><path d="M372,462L332,471L382,501Z" fill="#fa8738" stroke="#fa8738" stroke-width="1.51"/><path d="M339,293L310,314L381,322Z" fill="#fea158" stroke="#fea158" stroke-width="1.51"/><path d="M280,578L343,642L363,554Z" fill="#f37e34" stroke="#f37e34" stroke-width="1.51"/><path d="M99,869L-20,885L226,907Z" fill="#c57f57" stroke="#c57f57" stroke-width="1.51"/><path d="M362,413L332,471L372,462Z" fill="#fc8d3e" stroke="#fc8d3e" stroke-width="1.51"/><path d="M352,95L324,150L376,132Z" fill="#ffb77c" stroke="#ffb77c" stroke-width="1.51"/><path d="M340,820L306,843L368,876Z" fill="#c8652b" stroke="#c8652b" stroke-width="1.51"/><path d="M306,843L265,880L368,876Z" fill="#c5682f" stroke="#c5682f" stroke-width="1.51"/><path d="M346,231L339,293L370,277Z" fill="#fea55e" stroke="#fea55e" stroke-width="1.51"/><path d="M260,427L332,471L362,413Z" fill="#fc9347" stroke="#fc9347" stroke-width="1.51"/><path d="M272,353L260,427L362,413Z" fill="#fd9b50" stroke="#fd9b50" stroke-width="1.51"/><path d="M316,528L280,578L363,554Z" fill="#f68338" stroke="#f68338" stroke-width="1.51"/><path d="M288,-90L339,-45L361,-87Z" fill="#ffc89c" stroke="#ffc89c" stroke-width="1.51"/><path d="M280,578L275,638L343,642Z" fill="#f07e38" stroke="#f07e38" stroke-width="1.51"/><path d="M271,671L316,747L343,670Z" fill="#e47533" stroke="#e47533" stroke-width="1.51"/><path d="M324,150L250,220L346,231Z" fill="#feb375" stroke="#feb375" stroke-width="1.51"/><path d="M261,264L339,293L346,231Z" fill="#feaa66" stroke="#feaa66" stroke-width="1.51"/><path d="M314,45L293,69L352,95Z" fill="#ffc08b" stroke="#ffc08b" stroke-width="1.51"/><path d="M292,133L324,150L352,95Z" fill="#ffba81" stroke="#ffba81" stroke-width="1.51"/><path d="M293,69L292,133L352,95Z" fill="#ffbe87" stroke="#ffbe87" stroke-width="1.51"/><path d="M316,747L306,843L340,820Z" fill="#cf6b2f" stroke="#cf6b2f" stroke-width="1.51"/><path d="M250,220L261,264L346,231Z" fill="#feb170" stroke="#feb170" stroke-width="1.51"/><path d="M274,746L306,843L316,747Z" fill="#d37034" stroke="#d37034" stroke-width="1.51"/><path d="M284,511L316,528L332,471Z" fill="#f98b3e" stroke="#f98b3e" stroke-width="1.51"/><path d="M261,264L310,314L339,293Z" fill="#fda863" stroke="#fda863" stroke-width="1.51"/><path d="M343,642L275,638L343,670Z" fill="#ed7833" stroke="#ed7833" stroke-width="1.51"/><path d="M275,638L271,671L343,670Z" fill="#ec7a36" stroke="#ec7a36" stroke-width="1.51"/><path d="M271,671L274,746L316,747Z" fill="#df7637" stroke="#df7637" stroke-width="1.51"/><path d="M260,427L274,479L332,471Z" fill="#fb9449" stroke="#fb9449" stroke-width="1.51"/><path d="M288,-90L307,-6L339,-45Z" fill="#ffc99c" stroke="#ffc99c" stroke-width="1.51"/><path d="M292,133L237,187L324,150Z" fill="#febc82" stroke="#febc82" stroke-width="1.51"/><path d="M237,187L250,220L324,150Z" fill="#feba7e" stroke="#feba7e" stroke-width="1.51"/><path d="M274,479L284,511L332,471Z" fill="#fa8f43" stroke="#fa8f43" stroke-width="1.51"/><path d="M271,120L292,133L293,69Z" fill="#ffc08a" stroke="#ffc08a" stroke-width="1.51"/><path d="M274,746L226,826L306,843Z" fill="#cf7139" stroke="#cf7139" stroke-width="1.51"/><path d="M288,-90L226,0L307,-6Z" fill="#ffcda2" stroke="#ffcda2" stroke-width="1.51"/><path d="M307,-6L226,0L314,45Z" fill="#ffc99b" stroke="#ffc99b" stroke-width="1.51"/><path d="M226,0L293,69L314,45Z" fill="#ffc798" stroke="#ffc798" stroke-width="1.51"/><path d="M284,511L280,578L316,528Z" fill="#f7893e" stroke="#f7893e" stroke-width="1.51"/><path d="M245,-97L226,0L288,-90Z" fill="#ffd1a9" stroke="#ffd1a9" stroke-width="1.51"/><path d="M261,264L272,353L310,314Z" fill="#fda863" stroke="#fda863" stroke-width="1.51"/><path d="M226,826L265,880L306,843Z" fill="#c86f39" stroke="#c86f39" stroke-width="1.51"/><path d="M250,220L245,233L261,264Z" fill="#feb576" stroke="#feb576" stroke-width="1.51"/><path d="M271,671L237,684L274,746Z" fill="#e47b3d" stroke="#e47b3d" stroke-width="1.51"/><path d="M260,427L244,443L274,479Z" fill="#fc9950" stroke="#fc9950" stroke-width="1.51"/><path d="M240,605L275,638L280,578Z" fill="#f2843f" stroke="#f2843f" stroke-width="1.51"/><path d="M229,496L280,578L284,511Z" fill="#f98e45" stroke="#f98e45" stroke-width="1.51"/><path d="M271,120L237,187L292,133Z" fill="#fec087" stroke="#fec087" stroke-width="1.51"/><path d="M193,38L235,110L293,69Z" fill="#ffc99a" stroke="#ffc99a" stroke-width="1.51"/><path d="M226,0L193,38L293,69Z" fill="#ffcda1" stroke="#ffcda1" stroke-width="1.51"/><path d="M235,110L271,120L293,69Z" fill="#ffc490" stroke="#ffc490" stroke-width="1.51"/><path d="M261,264L190,329L272,353Z" fill="#fead6b" stroke="#fead6b" stroke-width="1.51"/><path d="M192,402L260,427L272,353Z" fill="#fea35b" stroke="#fea35b" stroke-width="1.51"/><path d="M229,496L240,605L280,578Z" fill="#f68c46" stroke="#f68c46" stroke-width="1.51"/><path d="M274,479L229,496L284,511Z" fill="#fa9249" stroke="#fa9249" stroke-width="1.51"/><path d="M235,110L237,187L271,120Z" fill="#fec38d" stroke="#fec38d" stroke-width="1.51"/><path d="M193,739L226,826L274,746Z" fill="#d77941" stroke="#d77941" stroke-width="1.51"/><path d="M190,268L190,329L261,264Z" fill="#feb475" stroke="#feb475" stroke-width="1.51"/><path d="M237,684L193,739L274,746Z" fill="#e07d41" stroke="#e07d41" stroke-width="1.51"/><path d="M240,605L212,617L275,638Z" fill="#f28644" stroke="#f28644" stroke-width="1.51"/><path d="M212,617L237,684L275,638Z" fill="#ef8242" stroke="#ef8242" stroke-width="1.51"/><path d="M237,684L271,671L275,638Z" fill="#eb7e3d" stroke="#eb7e3d" stroke-width="1.51"/><path d="M244,443L229,496L274,479Z" fill="#fb974f" stroke="#fb974f" stroke-width="1.51"/><path d="M190,329L192,402L272,353Z" fill="#feaa67" stroke="#feaa67" stroke-width="1.51"/><path d="M229,496L185,605L240,605Z" fill="#f6904c" stroke="#f6904c" stroke-width="1.51"/><path d="M226,826L226,907L265,880Z" fill="#c5713d" stroke="#c5713d" stroke-width="1.51"/><path d="M147,867L99,869L226,907Z" fill="#c57b4e" stroke="#c57b4e" stroke-width="1.51"/><path d="M235,110L181,167L237,187Z" fill="#fec590" stroke="#fec590" stroke-width="1.51"/><path d="M160,-85L226,0L245,-97Z" fill="#ffd7b3" stroke="#ffd7b3" stroke-width="1.51"/><path d="M192,402L244,443L260,427Z" fill="#fea059" stroke="#fea059" stroke-width="1.51"/><path d="M245,233L190,268L261,264Z" fill="#feb677" stroke="#feb677" stroke-width="1.51"/><path d="M136,512L185,605L229,496Z" fill="#fa9755" stroke="#fa9755" stroke-width="1.51"/><path d="M185,605L212,617L240,605Z" fill="#f38b4b" stroke="#f38b4b" stroke-width="1.51"/><path d="M237,187L245,233L250,220Z" fill="#feba7e" stroke="#feba7e" stroke-width="1.51"/><path d="M226,826L147,867L226,907Z" fill="#c77646" stroke="#c77646" stroke-width="1.51"/><path d="M171,482L136,512L229,496Z" fill="#fc9d5b" stroke="#fc9d5b" stroke-width="1.51"/><path d="M181,167L190,268L237,187Z" fill="#fec088" stroke="#fec088" stroke-width="1.51"/><path d="M171,482L229,496L244,443Z" fill="#fc9c57" stroke="#fc9c57" stroke-width="1.51"/><path d="M237,187L190,268L245,233Z" fill="#febb7f" stroke="#febb7f" stroke-width="1.51"/><path d="M192,402L171,482L244,443Z" fill="#fda25d" stroke="#fda25d" stroke-width="1.51"/><path d="M160,-85L132,-36L226,0Z" fill="#ffdbb8" stroke="#ffdbb8" stroke-width="1.51"/><path d="M193,38L145,81L235,110Z" fill="#fed0a4" stroke="#fed0a4" stroke-width="1.51"/><path d="M212,617L148,649L237,684Z" fill="#f0884c" stroke="#f0884c" stroke-width="1.51"/><path d="M193,739L144,762L226,826Z" fill="#d77f4a" stroke="#d77f4a" stroke-width="1.51"/><path d="M139,708L193,739L237,684Z" fill="#e4844c" stroke="#e4844c" stroke-width="1.51"/><path d="M148,649L139,708L237,684Z" fill="#eb8950" stroke="#eb8950" stroke-width="1.51"/><path d="M145,81L181,167L235,110Z" fill="#fecc9d" stroke="#fecc9d" stroke-width="1.51"/><path d="M181,167L138,243L190,268Z" fill="#fec28b" stroke="#fec28b" stroke-width="1.51"/><path d="M144,762L130,790L226,826Z" fill="#d3804e" stroke="#d3804e" stroke-width="1.51"/><path d="M130,790L147,867L226,826Z" fill="#cd7d4d" stroke="#cd7d4d" stroke-width="1.51"/><path d="M132,-36L193,38L226,0Z" fill="#ffd7b1" stroke="#ffd7b1" stroke-width="1.51"/><path d="M132,-36L152,41L193,38Z" fill="#fed9b5" stroke="#fed9b5" stroke-width="1.51"/><path d="M185,605L148,649L212,617Z" fill="#f38d51" stroke="#f38d51" stroke-width="1.51"/><path d="M130,790L112,833L147,867Z" fill="#ce8154" stroke="#ce8154" stroke-width="1.51"/><path d="M119,202L138,243L181,167Z" fill="#fec895" stroke="#fec895" stroke-width="1.51"/><path d="M136,512L97,547L185,605Z" fill="#fa9b5e" stroke="#fa9b5e" stroke-width="1.51"/><path d="M143,287L132,322L190,329Z" fill="#feb97e" stroke="#feb97e" stroke-width="1.51"/><path d="M132,322L137,407L190,329Z" fill="#ffb477" stroke="#ffb477" stroke-width="1.51"/><path d="M143,287L190,329L190,268Z" fill="#feb87c" stroke="#feb87c" stroke-width="1.51"/><path d="M190,329L137,407L192,402Z" fill="#ffae6d" stroke="#ffae6d" stroke-width="1.51"/><path d="M137,407L171,482L192,402Z" fill="#fea867" stroke="#fea867" stroke-width="1.51"/><path d="M139,708L144,762L193,739Z" fill="#df8651" stroke="#df8651" stroke-width="1.51"/><path d="M152,41L145,81L193,38Z" fill="#fed5ae" stroke="#fed5ae" stroke-width="1.51"/><path d="M97,547L90,560L185,605Z" fill="#f99b5f" stroke="#f99b5f" stroke-width="1.51"/><path d="M145,81L85,113L181,167Z" fill="#fdd2a7" stroke="#fdd2a7" stroke-width="1.51"/><path d="M85,113L90,168L181,167Z" fill="#fed2a5" stroke="#fed2a5" stroke-width="1.51"/><path d="M138,243L143,287L190,268Z" fill="#febf85" stroke="#febf85" stroke-width="1.51"/><path d="M137,407L105,473L171,482Z" fill="#fea86a" stroke="#fea86a" stroke-width="1.51"/><path d="M94,620L148,649L185,605Z" fill="#f39259" stroke="#f39259" stroke-width="1.51"/><path d="M90,560L94,620L185,605Z" fill="#f6985e" stroke="#f6985e" stroke-width="1.51"/><path d="M39,-61L120,-56L160,-85Z" fill="#ffe3c8" stroke="#ffe3c8" stroke-width="1.51"/><path d="M90,168L119,202L181,167Z" fill="#fecd9d" stroke="#fecd9d" stroke-width="1.51"/><path d="M120,-56L132,-36L160,-85Z" fill="#ffe0c2" stroke="#ffe0c2" stroke-width="1.51"/><path d="M105,473L136,512L171,482Z" fill="#fda365" stroke="#fda365" stroke-width="1.51"/><path d="M139,708L115,758L144,762Z" fill="#de8856" stroke="#de8856" stroke-width="1.51"/><path d="M132,-36L87,1L152,41Z" fill="#fedebd" stroke="#fedebd" stroke-width="1.51"/><path d="M87,1L129,53L152,41Z" fill="#fedcb9" stroke="#fedcb9" stroke-width="1.51"/><path d="M129,53L145,81L152,41Z" fill="#fed8b1" stroke="#fed8b1" stroke-width="1.51"/><path d="M53,349L93,417L132,322Z" fill="#ffb87f" stroke="#ffb87f" stroke-width="1.51"/><path d="M87,314L53,349L132,322Z" fill="#ffbd86" stroke="#ffbd86" stroke-width="1.51"/><path d="M132,322L93,417L137,407Z" fill="#ffb377" stroke="#ffb377" stroke-width="1.51"/><path d="M93,417L105,473L137,407Z" fill="#ffae71" stroke="#ffae71" stroke-width="1.51"/><path d="M88,706L139,708L148,649Z" fill="#ea8d59" stroke="#ea8d59" stroke-width="1.51"/><path d="M138,243L87,293L143,287Z" fill="#fec18a" stroke="#fec18a" stroke-width="1.51"/><path d="M112,833L99,869L147,867Z" fill="#ca8055" stroke="#ca8055" stroke-width="1.51"/><path d="M94,620L88,706L148,649Z" fill="#f1925c" stroke="#f1925c" stroke-width="1.51"/><path d="M87,293L132,322L143,287Z" fill="#febe85" stroke="#febe85" stroke-width="1.51"/><path d="M115,758L130,790L144,762Z" fill="#d98656" stroke="#d98656" stroke-width="1.51"/><path d="M129,53L85,113L145,81Z" fill="#fed7b1" stroke="#fed7b1" stroke-width="1.51"/><path d="M88,706L115,758L139,708Z" fill="#e38b5a" stroke="#e38b5a" stroke-width="1.51"/><path d="M87,293L87,314L132,322Z" fill="#ffbe87" stroke="#ffbe87" stroke-width="1.51"/><path d="M38,854L-20,885L99,869Z" fill="#ca8662" stroke="#ca8662" stroke-width="1.51"/><path d="M119,202L87,293L138,243Z" fill="#ffc591" stroke="#ffc591" stroke-width="1.51"/><path d="M105,473L97,547L136,512Z" fill="#fea366" stroke="#fea366" stroke-width="1.51"/><path d="M52,73L85,113L129,53Z" fill="#fedab6" stroke="#fedab6" stroke-width="1.51"/><path d="M120,-56L87,1L132,-36Z" fill="#ffe0c3" stroke="#ffe0c3" stroke-width="1.51"/><path d="M57,693L88,706L94,620Z" fill="#ef9361" stroke="#ef9361" stroke-width="1.51"/><path d="M34,191L87,293L119,202Z" fill="#ffca9b" stroke="#ffca9b" stroke-width="1.51"/><path d="M115,758L52,767L130,790Z" fill="#d9885b" stroke="#d9885b" stroke-width="1.51"/><path d="M52,767L112,833L130,790Z" fill="#d5865a" stroke="#d5865a" stroke-width="1.51"/><path d="M87,1L50,20L129,53Z" fill="#fedfc0" stroke="#fedfc0" stroke-width="1.51"/><path d="M50,20L52,73L129,53Z" fill="#fedebe" stroke="#fedebe" stroke-width="1.51"/><path d="M39,-61L87,1L120,-56Z" fill="#ffe4c9" stroke="#ffe4c9" stroke-width="1.51"/><path d="M90,168L34,191L119,202Z" fill="#fed0a4" stroke="#fed0a4" stroke-width="1.51"/><path d="M85,113L64,131L90,168Z" fill="#fed6ae" stroke="#fed6ae" stroke-width="1.51"/><path d="M53,349L58,414L93,417Z" fill="#ffb67e" stroke="#ffb67e" stroke-width="1.51"/><path d="M23,484L97,547L105,473Z" fill="#ffa86e" stroke="#ffa86e" stroke-width="1.51"/><path d="M52,767L38,854L112,833Z" fill="#d2875f" stroke="#d2875f" stroke-width="1.51"/><path d="M88,706L52,767L115,758Z" fill="#e08c5e" stroke="#e08c5e" stroke-width="1.51"/><path d="M48,622L57,693L94,620Z" fill="#f49764" stroke="#f49764" stroke-width="1.51"/><path d="M23,484L20,532L97,547Z" fill="#ffa770" stroke="#ffa770" stroke-width="1.51"/><path d="M38,854L99,869L112,833Z" fill="#cb845b" stroke="#cb845b" stroke-width="1.51"/><path d="M39,-61L34,-19L87,1Z" fill="#ffe5cd" stroke="#ffe5cd" stroke-width="1.51"/><path d="M34,191L54,305L87,293Z" fill="#ffc897" stroke="#ffc897" stroke-width="1.51"/><path d="M36,608L48,622L90,560Z" fill="#f89d69" stroke="#f89d69" stroke-width="1.51"/><path d="M90,560L48,622L94,620Z" fill="#f79b65" stroke="#f79b65" stroke-width="1.51"/><path d="M93,417L58,414L105,473Z" fill="#ffaf75" stroke="#ffaf75" stroke-width="1.51"/><path d="M58,414L23,484L105,473Z" fill="#ffae76" stroke="#ffae76" stroke-width="1.51"/><path d="M16,834L38,854L52,767Z" fill="#d38a64" stroke="#d38a64" stroke-width="1.51"/><path d="M20,532L90,560L97,547Z" fill="#fca26a" stroke="#fca26a" stroke-width="1.51"/><path d="M57,693L52,767L88,706Z" fill="#e59061" stroke="#e59061" stroke-width="1.51"/><path d="M54,305L53,349L87,314Z" fill="#ffc08b" stroke="#ffc08b" stroke-width="1.51"/><path d="M54,305L87,314L87,293Z" fill="#ffc18d" stroke="#ffc18d" stroke-width="1.51"/><path d="M20,532L36,608L90,560Z" fill="#fba26c" stroke="#fba26c" stroke-width="1.51"/><path d="M64,131L34,191L90,168Z" fill="#fed4ac" stroke="#fed4ac" stroke-width="1.51"/><path d="M34,-19L50,20L87,1Z" fill="#fee3c9" stroke="#fee3c9" stroke-width="1.51"/><path d="M52,73L64,131L85,113Z" fill="#fedab6" stroke="#fedab6" stroke-width="1.51"/><path d="M20,532L0,558L36,608Z" fill="#fca471" stroke="#fca471" stroke-width="1.51"/><path d="M-11,809L16,834L52,767Z" fill="#d58c66" stroke="#d58c66" stroke-width="1.51"/><path d="M34,191L-42,303L54,305Z" fill="#ffcb9e" stroke="#ffcb9e" stroke-width="1.51"/><path d="M48,622L-7,639L57,693Z" fill="#f5996a" stroke="#f5996a" stroke-width="1.51"/><path d="M-11,701L52,767L57,693Z" fill="#e69367" stroke="#e69367" stroke-width="1.51"/><path d="M53,349L-15,339L58,414Z" fill="#ffbd88" stroke="#ffbd88" stroke-width="1.51"/><path d="M-14,464L23,484L58,414Z" fill="#ffb27d" stroke="#ffb27d" stroke-width="1.51"/><path d="M-25,174L34,191L64,131Z" fill="#fed8b2" stroke="#fed8b2" stroke-width="1.51"/><path d="M-41,114L-25,174L64,131Z" fill="#fedcbb" stroke="#fedcbb" stroke-width="1.51"/><path d="M52,73L-41,114L64,131Z" fill="#fedebd" stroke="#fedebd" stroke-width="1.51"/><path d="M-48,195L-42,303L34,191Z" fill="#ffd1a9" stroke="#ffd1a9" stroke-width="1.51"/><path d="M50,20L-35,67L52,73Z" fill="#fee2c7" stroke="#fee2c7" stroke-width="1.51"/><path d="M-15,339L53,349L54,305Z" fill="#ffc28f" stroke="#ffc28f" stroke-width="1.51"/><path d="M-7,639L-11,701L57,693Z" fill="#f0986c" stroke="#f0986c" stroke-width="1.51"/><path d="M-56,410L-14,464L58,414Z" fill="#ffb784" stroke="#ffb784" stroke-width="1.51"/><path d="M-48,375L-56,410L58,414Z" fill="#ffbc89" stroke="#ffbc89" stroke-width="1.51"/><path d="M-15,339L-48,375L58,414Z" fill="#ffbe8b" stroke="#ffbe8b" stroke-width="1.51"/><path d="M-35,67L-41,114L52,73Z" fill="#fee1c5" stroke="#fee1c5" stroke-width="1.51"/><path d="M-11,701L-36,780L52,767Z" fill="#e1926b" stroke="#e1926b" stroke-width="1.51"/><path d="M-42,303L-15,339L54,305Z" fill="#ffc596" stroke="#ffc596" stroke-width="1.51"/><path d="M-36,780L-11,809L52,767Z" fill="#d98f69" stroke="#d98f69" stroke-width="1.51"/><path d="M36,608L-7,639L48,622Z" fill="#f79d6c" stroke="#f79d6c" stroke-width="1.51"/><path d="M34,-19L-26,-23L50,20Z" fill="#fee7d0" stroke="#fee7d0" stroke-width="1.51"/><path d="M-26,-23L-35,67L50,20Z" fill="#fee6d0" stroke="#fee6d0" stroke-width="1.51"/><path d="M-48,195L-77,232L-42,303Z" fill="#ffd2ab" stroke="#ffd2ab" stroke-width="1.51"/><path d="M-25,174L-48,195L34,191Z" fill="#ffd7b2" stroke="#ffd7b2" stroke-width="1.51"/><path d="M-25,-65L-26,-23L34,-19Z" fill="#ffead6" stroke="#ffead6" stroke-width="1.51"/><path d="M16,834L-20,885L38,854Z" fill="#cd8966" stroke="#cd8966" stroke-width="1.51"/><path d="M-25,-65L34,-19L39,-61Z" fill="#ffead5" stroke="#ffead5" stroke-width="1.51"/><path d="M0,558L-7,639L36,608Z" fill="#f9a170" stroke="#f9a170" stroke-width="1.51"/><path d="M-19,508L20,532L23,484Z" fill="#ffac78" stroke="#ffac78" stroke-width="1.51"/><path d="M-14,464L-19,508L23,484Z" fill="#ffaf7c" stroke="#ffaf7c" stroke-width="1.51"/><path d="M-62,-4L-35,67L-26,-23Z" fill="#ffe9d5" stroke="#ffe9d5" stroke-width="1.51"/><path d="M-19,508L0,558L20,532Z" fill="#ffa976" stroke="#ffa976" stroke-width="1.51"/><path d="M-72,611L-7,639L0,558Z" fill="#fba274" stroke="#fba274" stroke-width="1.51"/><path d="M-11,809L-20,885L16,834Z" fill="#cf8b68" stroke="#cf8b68" stroke-width="1.51"/><path d="M-62,-4L-73,13L-35,67Z" fill="#ffead5" stroke="#ffead5" stroke-width="1.51"/><path d="M-95,719L-36,780L-11,701Z" fill="#e59770" stroke="#e59770" stroke-width="1.51"/><path d="M-69,792L-20,885L-11,809Z" fill="#d38d6c" stroke="#d38d6c" stroke-width="1.51"/><path d="M-72,611L-11,701L-7,639Z" fill="#f79d71" stroke="#f79d71" stroke-width="1.51"/><path d="M-19,508L-80,518L0,558Z" fill="#ffac79" stroke="#ffac79" stroke-width="1.51"/><path d="M-80,518L-72,611L0,558Z" fill="#fea879" stroke="#fea879" stroke-width="1.51"/><path d="M-69,792L-109,883L-20,885Z" fill="#cf8e6e" stroke="#cf8e6e" stroke-width="1.51"/><path d="M-56,410L-67,455L-14,464Z" fill="#ffb786" stroke="#ffb786" stroke-width="1.51"/><path d="M-72,611L-95,719L-11,701Z" fill="#f29c73" stroke="#f29c73" stroke-width="1.51"/><path d="M-67,455L-19,508L-14,464Z" fill="#ffb381" stroke="#ffb381" stroke-width="1.51"/><path d="M-36,780L-69,792L-11,809Z" fill="#d9916d" stroke="#d9916d" stroke-width="1.51"/><path d="M-41,114L-68,171L-25,174Z" fill="#ffddbd" stroke="#ffddbd" stroke-width="1.51"/><path d="M-67,455L-80,518L-19,508Z" fill="#ffb281" stroke="#ffb281" stroke-width="1.51"/><path d="M-42,303L-79,352L-15,339Z" fill="#ffc699" stroke="#ffc699" stroke-width="1.51"/><path d="M-79,352L-48,375L-15,339Z" fill="#ffc395" stroke="#ffc395" stroke-width="1.51"/><path d="M-62,-4L-26,-23L-25,-65Z" fill="#ffecda" stroke="#ffecda" stroke-width="1.51"/><path d="M-80,518L-102,599L-72,611Z" fill="#fea97c" stroke="#fea97c" stroke-width="1.51"/><path d="M-77,232L-89,295L-42,303Z" fill="#ffcea5" stroke="#ffcea5" stroke-width="1.51"/><path d="M-95,719L-69,792L-36,780Z" fill="#df9571" stroke="#df9571" stroke-width="1.51"/><path d="M-73,103L-41,114L-35,67Z" fill="#ffe3c8" stroke="#ffe3c8" stroke-width="1.51"/><path d="M-68,171L-48,195L-25,174Z" fill="#ffdab8" stroke="#ffdab8" stroke-width="1.51"/><path d="M-105,-67L-62,-4L-25,-65Z" fill="#ffeede" stroke="#ffeede" stroke-width="1.51"/><path d="M-95,719L-90,789L-69,792Z" fill="#df9573" stroke="#df9573" stroke-width="1.51"/><path d="M-73,103L-68,171L-41,114Z" fill="#ffe1c3" stroke="#ffe1c3" stroke-width="1.51"/><path d="M-73,13L-73,103L-35,67Z" fill="#ffe6cf" stroke="#ffe6cf" stroke-width="1.51"/><path d="M-90,789L-109,883L-69,792Z" fill="#d59172" stroke="#d59172" stroke-width="1.51"/><path d="M-89,295L-79,352L-42,303Z" fill="#ffc99e" stroke="#ffc99e" stroke-width="1.51"/><path d="M-102,599L-95,719L-72,611Z" fill="#f8a178" stroke="#f8a178" stroke-width="1.51"/><path d="M-68,171L-77,232L-48,195Z" fill="#ffd9b6" stroke="#ffd9b6" stroke-width="1.51"/><path d="M-79,352L-56,410L-48,375Z" fill="#ffc192" stroke="#ffc192" stroke-width="1.51"/><path d="M-79,352L-67,455L-56,410Z" fill="#ffbe8d" stroke="#ffbe8d" stroke-width="1.51"/><path d="M-105,-67L-73,13L-62,-4Z" fill="#ffeddd" stroke="#ffeddd" stroke-width="1.51"/><path d="M-79,352L-80,518L-67,455Z" fill="#ffba8a" stroke="#ffba8a" stroke-width="1.51"/><path d="M-73,103L-77,232L-68,171Z" fill="#ffddbd" stroke="#ffddbd" stroke-width="1.51"/><path d="M-105,-67L-73,103L-73,13Z" fill="#ffecd9" stroke="#ffecd9" stroke-width="1.51"/><path d="M-89,295L-77,232L-73,103Z" fill="#ffd8b5" stroke="#ffd8b5" stroke-width="1.51"/><path d="M-105,-67L-89,295L-73,103Z" fill="#ffe4ca" stroke="#ffe4ca" stroke-width="1.51"/><path d="M-102,599L-80,518L-79,352Z" fill="#ffb485" stroke="#ffb485" stroke-width="1.51"/><path d="M-89,295L-102,599L-79,352Z" fill="#ffbe8f" stroke="#ffbe8f" stroke-width="1.51"/><path d="M-105,-67L-102,599L-89,295Z" fill="#ffd0a8" stroke="#ffd0a8" stroke-width="1.51"/><path d="M-95,719L-109,883L-90,789Z" fill="#d99473" stroke="#d99473" stroke-width="1.51"/><path d="M-102,599L-109,883L-95,719Z" fill="#e69976" stroke="#e69976" stroke-width="1.51"/></svg>